<svg width="64" height="81" viewBox="0 0 64 81" fill="none" xmlns="http://www.w3.org/2000/svg">
<g clip-path="url(#clip0_2653_79915)">
<path d="M59 76H0V0H48.852L59 10.2125V76ZM2.36 73.625H56.64V11.1625L47.908 2.375H2.36V73.625Z" fill="#43B0E6"/>
<path d="M30.6799 9.5H9.43994V11.875H30.6799V9.5Z" fill="#43B0E6"/>
<path d="M49.5599 54.625H9.43994V16.625H49.5599V54.625ZM11.7999 52.25H47.1999V19H11.7999V52.25Z" fill="#43B0E6"/>
<path d="M49.5601 59.375H28.3201V61.75H49.5601V59.375Z" fill="#43B0E6"/>
<path d="M42.4801 64.125H28.3201V66.5H42.4801V64.125Z" fill="#43B0E6"/>
<path d="M48.3801 23.75H10.6201V26.125H48.3801V23.75Z" fill="#43B0E6"/>
<path d="M21.2399 17.8125H18.8799V53.4375H21.2399V17.8125Z" fill="#43B0E6"/>
<path d="M30.6801 24.9375H28.3201V53.4375H30.6801V24.9375Z" fill="#43B0E6"/>
<path d="M40.1198 24.9375H37.7598V53.4375H40.1198V24.9375Z" fill="#43B0E6"/>
<path d="M48.3801 30.875H20.0601V33.25H48.3801V30.875Z" fill="#43B0E6"/>
<path d="M48.3801 38H20.0601V40.375H48.3801V38Z" fill="#43B0E6"/>
<path d="M48.3801 45.125H20.0601V47.5H48.3801V45.125Z" fill="#43B0E6"/>
<path d="M57.8202 11.875H47.2002V1.1875H49.5602V9.5H57.8202V11.875Z" fill="#43B0E6"/>
<path d="M16.5199 30.875H14.1599V33.25H16.5199V30.875Z" fill="#43B0E6"/>
<path d="M16.5199 38H14.1599V40.375H16.5199V38Z" fill="#43B0E6"/>
<path d="M16.5199 45.125H14.1599V47.5H16.5199V45.125Z" fill="#43B0E6"/>
</g>
<path fill-rule="evenodd" clip-rule="evenodd" d="M5 74.9997V80.9997H64V17.6527L59 12.8076V16.0093L61.64 18.5675V78.7129H7.36V74.9997H5Z" fill="#43B0E6"/>
<defs>
<clipPath id="clip0_2653_79915">
<rect width="59" height="76" fill="white"/>
</clipPath>
</defs>
</svg>
