<svg width="240" height="240" viewBox="0 0 240 240" fill="none" xmlns="http://www.w3.org/2000/svg">
<g clip-path="url(#clip0_8254_391046)">
<path d="M200.01 55.1191L157.684 13.0322C155.724 11.1003 153.081 10.0208 150.329 10.0287H147.65V65.0287H203.004V62.4078C203.012 61.0553 202.752 59.7146 202.238 58.4635C201.724 57.2124 200.967 56.0756 200.01 55.1191Z" fill="#89969F"/>
<path d="M133.857 68.4339V9.99998H47.3783C46.0189 9.99242 44.6714 10.2535 43.4132 10.7682C42.155 11.2829 41.0109 12.041 40.0465 12.9991C39.0822 13.9573 38.3167 15.0965 37.7938 16.3513C37.271 17.6061 37.0012 18.9519 37 20.3113V219.689C37.0012 221.048 37.271 222.394 37.7938 223.649C38.3167 224.904 39.0822 226.043 40.0465 227.001C41.0109 227.959 42.155 228.717 43.4132 229.232C44.6714 229.746 46.0189 230.008 47.3783 230H192.664C194.024 230.008 195.371 229.746 196.629 229.232C197.888 228.717 199.032 227.959 199.996 227.001C200.96 226.043 201.726 224.904 202.249 223.649C202.772 222.394 203.041 221.048 203.043 219.689V78.7452H144.236C141.494 78.7478 138.863 77.6644 136.918 75.732C134.973 73.7996 133.873 71.1756 133.857 68.4339ZM63.7156 38.0069C63.7169 37.5535 63.8075 37.1047 63.9822 36.6863C64.1568 36.2678 64.4123 35.8878 64.7338 35.5681C65.0553 35.2483 65.4367 34.995 65.8561 34.8227C66.2755 34.6503 66.7248 34.5622 67.1782 34.5635H103.65C104.104 34.5622 104.553 34.6503 104.973 34.8227C105.392 34.995 105.773 35.2483 106.095 35.5681C106.416 35.8878 106.672 36.2678 106.847 36.6863C107.021 37.1047 107.112 37.5535 107.113 38.0069V44.8843C107.108 45.7985 106.741 46.6733 106.092 47.317C105.442 47.9607 104.565 48.3208 103.65 48.3182H67.1782C66.2641 48.3208 65.3862 47.9607 64.7371 47.317C64.0881 46.6733 63.7207 45.7985 63.7156 44.8843V38.0069ZM63.7156 64.9139C63.7207 63.9998 64.0881 63.1249 64.7371 62.4812C65.3862 61.8375 66.2641 61.4774 67.1782 61.48H103.65C104.565 61.4774 105.442 61.8375 106.092 62.4812C106.741 63.1249 107.108 63.9998 107.113 64.9139V71.7913C107.112 72.2443 107.021 72.6926 106.846 73.1106C106.672 73.5285 106.416 73.9078 106.094 74.2268C105.773 74.5458 105.391 74.7982 104.972 74.9695C104.552 75.1408 104.103 75.2277 103.65 75.2252H67.1782C66.7252 75.2277 66.2762 75.1408 65.8568 74.9695C65.4374 74.7982 65.056 74.5458 64.7343 74.2268C64.4127 73.9078 64.1571 73.5285 63.9823 73.1106C63.8075 72.6926 63.7169 72.2443 63.7156 71.7913V64.9139ZM142.361 206.479H126.712C124.057 206.491 121.451 205.761 119.189 204.372C116.926 202.983 115.096 200.989 113.904 198.617C113.609 197.971 113.132 197.426 112.533 197.045C111.934 196.665 111.237 196.467 110.528 196.474C109.838 196.461 109.159 196.646 108.57 197.008C107.982 197.369 107.51 197.89 107.209 198.511L104.664 203.562C104.237 204.434 103.574 205.169 102.751 205.685C101.911 206.202 100.945 206.477 99.9583 206.479H99.5852C98.5423 206.409 97.5439 206.03 96.7163 205.391C95.8887 204.753 95.2693 203.883 94.9365 202.892L89.3026 186.201L85.7826 196.723C84.8173 199.561 82.9872 202.025 80.5493 203.77C78.1115 205.515 75.1883 206.452 72.1904 206.45H68.087C67.3694 206.494 66.6506 206.39 65.9747 206.145C65.2988 205.9 64.6801 205.52 64.1567 205.027C63.6334 204.534 63.2163 203.939 62.9313 203.28C62.6462 202.62 62.4991 201.908 62.4991 201.19C62.4991 200.471 62.6462 199.759 62.9313 199.1C63.2163 198.44 63.6334 197.845 64.1567 197.352C64.6801 196.859 65.2988 196.479 65.9747 196.234C66.6506 195.989 67.3694 195.885 68.087 195.929H72.1904C72.9693 195.931 73.7293 195.689 74.3628 195.236C74.9963 194.783 75.4711 194.142 75.72 193.403L81.7556 175.402C82.2899 173.824 83.3053 172.453 84.659 171.482C86.0127 170.511 87.6367 169.989 89.3026 169.989C90.9685 169.989 92.5925 170.511 93.9462 171.482C95.2999 172.453 96.3153 173.824 96.8496 175.402L101.45 189.118C108.012 183.79 119.376 185.923 123.336 193.786C123.645 194.418 124.124 194.953 124.718 195.331C125.312 195.709 125.999 195.916 126.703 195.929H142.351C143.069 195.885 143.788 195.989 144.464 196.234C145.139 196.479 145.758 196.859 146.282 197.352C146.805 197.845 147.222 198.44 147.507 199.1C147.792 199.759 147.939 200.471 147.939 201.19C147.939 201.908 147.792 202.62 147.507 203.28C147.222 203.939 146.805 204.534 146.282 205.027C145.758 205.52 145.139 205.9 144.464 206.145C143.788 206.39 143.069 206.494 142.351 206.45L142.361 206.479ZM177.924 136.653V143.53C177.923 143.983 177.832 144.432 177.658 144.85C177.483 145.268 177.227 145.647 176.906 145.966C176.584 146.285 176.203 146.537 175.783 146.709C175.364 146.88 174.915 146.967 174.462 146.964H67.1782C66.7252 146.967 66.2762 146.88 65.8568 146.709C65.4374 146.537 65.056 146.285 64.7343 145.966C64.4127 145.647 64.1571 145.268 63.9823 144.85C63.8075 144.432 63.7169 143.983 63.7156 143.53V136.596C63.7207 135.681 64.0881 134.807 64.7371 134.163C65.3862 133.519 66.2641 133.159 67.1782 133.162H174.433C174.888 133.157 175.34 133.242 175.762 133.412C176.184 133.582 176.568 133.834 176.893 134.153C177.217 134.472 177.475 134.852 177.652 135.271C177.829 135.69 177.922 136.141 177.924 136.596V136.653ZM152.098 108.79V115.667C152.093 116.581 151.726 117.456 151.077 118.1C150.428 118.743 149.55 119.103 148.636 119.101H67.1782C66.2641 119.103 65.3862 118.743 64.7371 118.1C64.0881 117.456 63.7207 116.581 63.7156 115.667V108.79C63.7169 108.336 63.8075 107.887 63.9822 107.469C64.1568 107.05 64.4123 106.67 64.7338 106.351C65.0553 106.031 65.4367 105.778 65.8561 105.605C66.2755 105.433 66.7248 105.345 67.1782 105.346H148.607C149.518 105.336 150.396 105.686 151.05 106.32C151.704 106.954 152.081 107.821 152.098 108.732V108.79Z" fill="#89969F"/>
</g>
<defs>
<clipPath id="clip0_8254_391046">
<rect width="166.043" height="220" fill="white" transform="translate(37 10)"/>
</clipPath>
</defs>
</svg>
